<svg width="24" height="24" viewBox="0 0 24 24" fill="none" xmlns="http://www.w3.org/2000/svg">
<path d="M17.76 10.8C17.88 10.44 18 10.08 18 9.60005C18 6.96005 15.84 4.80005 13.2 4.80005C11.4 4.80005 9.71995 5.88005 8.99995 7.44005C8.63995 7.32005 8.15995 7.20005 7.79995 7.20005C6.11995 7.20005 4.79995 8.52005 4.79995 10.2C4.79995 10.44 4.79995 10.68 4.91995 10.8C2.75995 11.16 1.19995 12.84 1.19995 15C1.19995 17.28 3.11995 19.2 5.39995 19.2H17.4C19.68 19.2 21.6 17.28 21.6 15C21.6 12.84 19.92 11.04 17.76 10.8ZM10.2 17.88L6.35995 14.04L8.03995 12.36L10.2 14.5201L14.76 9.96005L16.44 11.64L10.2 17.88Z" fill="#E1E7FF"/>
</svg>
