<svg width="51" height="52" viewBox="0 0 51 52" fill="none" xmlns="http://www.w3.org/2000/svg">
<path d="M11.3114 42.1648L23.4557 30.0183C26.0614 31.8708 29.268 32.6768 32.4399 32.2765C35.6119 31.8762 38.5176 30.2988 40.5814 27.857C42.6451 25.4153 43.7162 22.2872 43.5823 19.093C43.4485 15.8987 42.1194 12.8713 39.8586 10.6107C37.5984 8.34917 34.571 7.01939 31.3765 6.88494C28.182 6.7505 25.0535 7.82121 22.6113 9.88483C20.1691 11.9485 18.5913 14.8544 18.1908 18.0265C17.7903 21.1987 18.5962 24.4055 20.4489 27.0114L8.3045 39.1579L11.3092 42.1627L11.3114 42.1648ZM30.8444 11.125C32.7992 11.1245 34.6945 11.7979 36.2109 13.0316C37.7272 14.2654 38.772 15.9841 39.1691 17.8982C39.5662 19.8124 39.2914 21.8049 38.391 23.54C37.4906 25.2752 36.0196 26.647 34.2259 27.4242C32.4322 28.2015 30.4254 28.3367 28.5436 27.8071C26.6619 27.2775 25.0202 26.1155 23.8951 24.5168C22.7701 22.9181 22.2304 20.9805 22.3672 19.0304C22.5039 17.0803 23.3086 15.237 24.6457 13.811L23.3601 15.0859L24.8094 13.641L24.8349 13.6154C25.622 12.8234 26.5585 12.1955 27.5901 11.768C28.6216 11.3405 29.7277 11.1219 30.8444 11.125Z" fill="#E1E7FF"/>
</svg>
