<svg width="24" height="24" viewBox="0 0 24 24" fill="none" xmlns="http://www.w3.org/2000/svg">
<g clip-path="url(#clip0_2260_410)">
<path d="M12.0001 1.5C5.37193 1.5 5.92519e-05 5.86406 5.92519e-05 11.25C5.92519e-05 13.4812 0.932872 15.525 2.47975 17.1703C1.78131 19.0172 0.328184 20.5828 0.304747 20.6016C-0.00462825 20.9297 -0.0890033 21.4078 0.0891218 21.8203C0.267247 22.2328 0.675059 22.5 1.12506 22.5C4.00787 22.5 6.28131 21.2953 7.64537 20.3297C9.00006 20.7563 10.4626 21 12.0001 21C18.6282 21 24.0001 16.6359 24.0001 11.25C24.0001 5.86406 18.6282 1.5 12.0001 1.5ZM12.0001 18.75C10.7485 18.75 9.511 18.5578 8.32506 18.1828L7.261 17.8453L6.34693 18.4922C5.67662 18.9656 4.75787 19.4953 3.65162 19.8516C3.99381 19.2844 4.32662 18.6469 4.58443 17.9672L5.08131 16.65L4.11568 15.6281C3.26725 14.7234 2.25006 13.2281 2.25006 11.25C2.25006 7.11563 6.6235 3.75 12.0001 3.75C17.3766 3.75 21.7501 7.11563 21.7501 11.25C21.7501 15.3844 17.3766 18.75 12.0001 18.75Z" fill="black"/>
</g>
<defs>
<clipPath id="clip0_2260_410">
<rect width="24" height="24" fill="white"/>
</clipPath>
</defs>
</svg>
