<svg width="30" height="24" viewBox="0 0 30 24" fill="none" xmlns="http://www.w3.org/2000/svg">
<g clip-path="url(#clip0_2233_396)">
<path d="M10.5 12C13.8141 12 16.5 9.31406 16.5 6C16.5 2.68594 13.8141 0 10.5 0C7.18594 0 4.5 2.68594 4.5 6C4.5 9.31406 7.18594 12 10.5 12ZM8.35781 14.25C3.74063 14.25 0 17.9906 0 22.6078C0 23.3766 0.623438 24 1.39219 24H19.6078C20.0766 24 20.4891 23.7703 20.7422 23.4141L16.0922 18.7641C15.3937 18.0656 15 17.1188 15 16.1344V14.5875C14.2547 14.3672 13.4625 14.25 12.6422 14.25H8.35781ZM18 10.5C17.1703 10.5 16.5 11.1703 16.5 12V15.8766C16.5 16.6734 16.8141 17.4375 17.3766 18L22.4109 23.0297C23.2875 23.9062 24.7125 23.9062 25.5938 23.0297L29.0344 19.5891C29.9109 18.7125 29.9109 17.2875 29.0344 16.4062L24 11.3766C23.4375 10.8141 22.6734 10.5 21.8766 10.5H18ZM21.375 14.25C21.375 14.8734 20.8734 15.375 20.25 15.375C19.6266 15.375 19.125 14.8734 19.125 14.25C19.125 13.6266 19.6266 13.125 20.25 13.125C20.8734 13.125 21.375 13.6266 21.375 14.25Z" fill="#E1E7FF"/>
</g>
<defs>
<clipPath id="clip0_2233_396">
<rect width="30" height="24" fill="white"/>
</clipPath>
</defs>
</svg>
