<svg width="24" height="24" viewBox="0 0 24 24" fill="none" xmlns="http://www.w3.org/2000/svg">
<path d="M14.9999 11.1428C15.3409 11.1428 15.668 11.0073 15.9091 10.7662C16.1502 10.5251 16.2857 10.1981 16.2857 9.85709C16.2857 9.5161 16.1502 9.18907 15.9091 8.94795C15.668 8.70683 15.3409 8.57138 14.9999 8.57138C14.659 8.57138 14.3319 8.70683 14.0908 8.94795C13.8497 9.18907 13.7142 9.5161 13.7142 9.85709C13.7142 10.1981 13.8497 10.5251 14.0908 10.7662C14.3319 11.0073 14.659 11.1428 14.9999 11.1428ZM10.2857 9.85709C10.2857 10.1981 10.1502 10.5251 9.90909 10.7662C9.66797 11.0073 9.34094 11.1428 8.99995 11.1428C8.65896 11.1428 8.33193 11.0073 8.09081 10.7662C7.84969 10.5251 7.71423 10.1981 7.71423 9.85709C7.71423 9.5161 7.84969 9.18907 8.09081 8.94795C8.33193 8.70683 8.65896 8.57138 8.99995 8.57138C9.34094 8.57138 9.66797 8.70683 9.90909 8.94795C10.1502 9.18907 10.2857 9.5161 10.2857 9.85709ZM7.13823 14.6828C7.27874 14.5872 7.45139 14.5511 7.61845 14.5824C7.7855 14.6137 7.93335 14.7099 8.02966 14.8499L8.03738 14.8602L8.07509 14.9108C8.11109 14.9571 8.16938 15.0274 8.24909 15.1148C8.40938 15.2888 8.65366 15.5262 8.98452 15.7637C9.64281 16.2377 10.6388 16.7142 11.9999 16.7142C13.3611 16.7142 14.3571 16.2377 15.0154 15.7637C15.3462 15.5262 15.5914 15.2888 15.7508 15.1148C15.8257 15.0334 15.8966 14.9484 15.9634 14.8602L15.9694 14.8517C16.0654 14.7107 16.2135 14.6137 16.3811 14.582C16.5487 14.5502 16.722 14.5863 16.8629 14.6824C17.0039 14.7784 17.1009 14.9265 17.1327 15.0941C17.1644 15.2617 17.1283 15.435 17.0322 15.5759L17.0305 15.5768V15.5785L17.0279 15.5811L17.0219 15.5897L17.0031 15.6162C16.9079 15.7436 16.8063 15.866 16.6988 15.9831C16.4168 16.2889 16.1043 16.5652 15.7662 16.8077C14.9348 17.4051 13.6817 17.9999 11.9999 17.9999C10.3182 17.9999 9.06509 17.4051 8.23366 16.8077C7.89558 16.5652 7.5831 16.2889 7.30109 15.9831C7.18669 15.8581 7.07911 15.7271 6.97881 15.5905L6.97195 15.5819L6.97023 15.5785L6.96938 15.5768L6.96852 15.5759C6.87259 15.435 6.83658 15.2617 6.8684 15.0942C6.90023 14.9267 6.99729 14.7787 7.13823 14.6828ZM11.9999 1.71423C6.31966 1.71423 1.71423 6.31966 1.71423 11.9999C1.71423 17.6802 6.31966 22.2857 11.9999 22.2857C17.6802 22.2857 22.2857 17.6802 22.2857 11.9999C22.2857 6.31966 17.6802 1.71423 11.9999 1.71423ZM2.99995 11.9999C2.99995 7.02938 7.02938 2.99995 11.9999 2.99995C16.9705 2.99995 20.9999 7.02938 20.9999 11.9999C20.9999 16.9705 16.9705 20.9999 11.9999 20.9999C7.02938 20.9999 2.99995 16.9705 2.99995 11.9999Z" fill="#E1E7FF"/>
</svg>
