<svg width="24" height="24" viewBox="0 0 24 24" fill="none" xmlns="http://www.w3.org/2000/svg">
<path fill-rule="evenodd" clip-rule="evenodd" d="M4.5 3.75C3.70435 3.75 2.94129 4.06607 2.37868 4.62868C1.81607 5.19129 1.5 5.95435 1.5 6.75V17.25C1.5 18.0456 1.81607 18.8087 2.37868 19.3713C2.94129 19.9339 3.70435 20.25 4.5 20.25H19.5C20.2956 20.25 21.0587 19.9339 21.6213 19.3713C22.1839 18.8087 22.5 18.0456 22.5 17.25V6.75C22.5 5.95435 22.1839 5.19129 21.6213 4.62868C21.0587 4.06607 20.2956 3.75 19.5 3.75H4.5ZM13.5 8.25C13.5 8.05109 13.421 7.86032 13.2803 7.71967C13.1397 7.57902 12.9489 7.5 12.75 7.5C12.5511 7.5 12.3603 7.57902 12.2197 7.71967C12.079 7.86032 12 8.05109 12 8.25V15.75C12 15.9489 12.079 16.1397 12.2197 16.2803C12.3603 16.421 12.5511 16.5 12.75 16.5C12.9489 16.5 13.1397 16.421 13.2803 16.2803C13.421 16.1397 13.5 15.9489 13.5 15.75V8.25ZM15 8.25C15 8.05109 15.079 7.86032 15.2197 7.71967C15.3603 7.57902 15.5511 7.5 15.75 7.5H18.75C18.9489 7.5 19.1397 7.57902 19.2803 7.71967C19.421 7.86032 19.5 8.05109 19.5 8.25C19.5 8.44891 19.421 8.63968 19.2803 8.78033C19.1397 8.92098 18.9489 9 18.75 9H16.5V11.25H18C18.1989 11.25 18.3897 11.329 18.5303 11.4697C18.671 11.6103 18.75 11.8011 18.75 12C18.75 12.1989 18.671 12.3897 18.5303 12.5303C18.3897 12.671 18.1989 12.75 18 12.75H16.5V15.75C16.5 15.9489 16.421 16.1397 16.2803 16.2803C16.1397 16.421 15.9489 16.5 15.75 16.5C15.5511 16.5 15.3603 16.421 15.2197 16.2803C15.079 16.1397 15 15.9489 15 15.75V8.25ZM6.636 9.78C7.04 9.205 7.503 9 7.886 9C8.269 9 8.732 9.205 9.136 9.78C9.25044 9.94284 9.42488 10.0536 9.62095 10.0878C9.81702 10.122 10.0187 10.0769 10.1815 9.9625C10.3443 9.84806 10.4551 9.67362 10.4893 9.47755C10.5235 9.28148 10.4784 9.07984 10.364 8.917C9.738 8.027 8.853 7.5 7.886 7.5C6.92 7.5 6.034 8.027 5.408 8.917C4.788 9.799 4.5 10.917 4.5 12C4.5 13.083 4.788 14.201 5.409 15.083C6.034 15.973 6.919 16.5 7.886 16.5C8.853 16.5 9.738 15.973 10.364 15.083C10.4526 14.9567 10.5001 14.8062 10.5 14.652V12C10.5 11.8011 10.421 11.6103 10.2803 11.4697C10.1397 11.329 9.94891 11.25 9.75 11.25H8.25C8.05109 11.25 7.86032 11.329 7.71967 11.4697C7.57902 11.6103 7.5 11.8011 7.5 12C7.5 12.1989 7.57902 12.3897 7.71967 12.5303C7.86032 12.671 8.05109 12.75 8.25 12.75H9V14.398C8.63 14.838 8.226 15 7.886 15C7.503 15 7.04 14.795 6.636 14.22C6.226 13.638 6 12.837 6 12C6 11.163 6.226 10.362 6.636 9.78Z" fill="#E1E7FF"/>
</svg>
